{
  "asset": { "version": "2.0", "generator": "VECTARY" },
  "nodes": [
    {
      "translation": [
        -0.07571875234919861, 0.010393312244548493, 0.03517723212053055
      ],
      "scale": [
        0.0014999916250361598, 0.0014999916250361595, 0.0014999916250361598
      ],
      "rotation": [
        -0.674828715000223, 0.21120181204513291, -0.2112018120451329,
        0.6748287150002231
      ],
      "name": "Sphere",
      "mesh": 0
    },
    {
      "translation": [
        -0.03674529356286578, 0.004690379112014185, 0.02870109555035351
      ],
      "scale": [
        0.0011070303715994777, 0.0011070303715994777, 0.0011070303715994777
      ],
      "rotation": [-0.7071067811865475, 0, 0, 0.7071067811865476],
      "name": "Torus",
      "mesh": 1
    }
  ],
  "materials": [
    {
      "pbrMetallicRoughness": {
        "baseColorFactor": [
          0.8670237934377415, 0.8670237934377415, 0.8670237934377415, 1
        ],
        "metallicFactor": 0,
        "roughnessFactor": 0.2
      },
      "name": "Volt",
      "emissiveFactor": [0, 0, 0],
      "extensions": {},
      "alphaMode": "OPAQUE",
      "doubleSided": false
    },
    {
      "pbrMetallicRoughness": {
        "baseColorFactor": [
          0.8670237934377415, 0.8670237934377415, 0.8670237934377415, 1
        ],
        "metallicFactor": 0,
        "roughnessFactor": 0.2
      },
      "name": "Crazy Eyes",
      "emissiveFactor": [0, 0, 0],
      "extensions": {},
      "alphaMode": "OPAQUE",
      "doubleSided": false
    }
  ],
  "meshes": [
    {
      "primitives": [
        {
          "mode": 4,
          "attributes": { "POSITION": 1, "NORMAL": 2, "TEXCOORD_0": 3 },
          "material": 0,
          "indices": 0
        }
      ]
    },
    {
      "primitives": [
        {
          "mode": 4,
          "attributes": { "POSITION": 5, "NORMAL": 6, "TEXCOORD_0": 7 },
          "material": 1,
          "indices": 4
        }
      ]
    }
  ],
  "accessors": [
    {
      "bufferView": 0,
      "byteOffset": 0,
      "componentType": 5125,
      "count": 11904,
      "type": "SCALAR"
    },
    {
      "bufferView": 1,
      "byteOffset": 0,
      "componentType": 5126,
      "count": 2143,
      "max": [50, 50, 100],
      "min": [-50, -50, 0],
      "type": "VEC3"
    },
    {
      "bufferView": 2,
      "byteOffset": 0,
      "componentType": 5126,
      "count": 2143,
      "type": "VEC3"
    },
    {
      "bufferView": 3,
      "byteOffset": 0,
      "componentType": 5126,
      "count": 2143,
      "type": "VEC2"
    },
    {
      "bufferView": 4,
      "byteOffset": 0,
      "componentType": 5125,
      "count": 12288,
      "type": "SCALAR"
    },
    {
      "bufferView": 5,
      "byteOffset": 0,
      "componentType": 5126,
      "count": 2145,
      "max": [182.2161865234375, 182.2161865234375, 51.679996490478516],
      "min": [-182.2161865234375, -182.2161865234375, 2.879999876022339],
      "type": "VEC3"
    },
    {
      "bufferView": 6,
      "byteOffset": 0,
      "componentType": 5126,
      "count": 2145,
      "type": "VEC3"
    },
    {
      "bufferView": 7,
      "byteOffset": 0,
      "componentType": 5126,
      "count": 2145,
      "type": "VEC2"
    }
  ],
  "bufferViews": [
    { "buffer": 0, "byteOffset": 0, "byteLength": 47616, "target": 34963 },
    { "buffer": 0, "byteOffset": 47616, "byteLength": 25716, "target": 34962 },
    { "buffer": 0, "byteOffset": 73332, "byteLength": 25716, "target": 34962 },
    { "buffer": 0, "byteOffset": 99048, "byteLength": 17144, "target": 34962 },
    { "buffer": 0, "byteOffset": 116192, "byteLength": 49152, "target": 34963 },
    { "buffer": 0, "byteOffset": 165344, "byteLength": 25740, "target": 34962 },
    { "buffer": 0, "byteOffset": 191084, "byteLength": 25740, "target": 34962 },
    { "buffer": 0, "byteOffset": 216824, "byteLength": 17160, "target": 34962 }
  ],
  "scene": 0,
  "scenes": [{ "nodes": [0, 1], "name": "ufo" }],
  "extensionsUsed": ["KHR_texture_transform"],
  "buffers": [{ "byteLength": 233984, "uri": "ufo.bin" }]
}
